<svg xmlns="http://www.w3.org/2000/svg" fill="none" viewBox="0 0 1728 1117"><path fill="#506ACF" d="M0 0h1728v1117H0z"/><g filter="url(#a)"><path fill="#905EEC" fill-rule="evenodd" d="M268 771c-185 7-407-39-515 110-106 148 0 344 64 514 50 132 123 252 248 318 132 70 287 97 423 37 143-62 224-199 279-344 70-186 186-406 63-562-122-157-363-80-562-73Z" clip-rule="evenodd"/></g><g filter="url(#b)"><path fill="#905EEC" fill-rule="evenodd" d="M1326 429c127 72 259 194 394 137 132-55 141-232 167-374 21-110 20-221-37-317a388 388 0 0 0-271-199c-122-16-233 43-330 118-124 97-293 199-275 355 19 156 214 203 352 280Z" clip-rule="evenodd"/></g><circle cx="296.2" cy="291.2" r="203.8" fill="url(#c)" transform="rotate(-23 296 291)"/><circle cx="1424.2" cy="677.2" r="110.8" fill="url(#d)" transform="rotate(-28 1424 677)"/><defs><radialGradient id="c" cx="0" cy="0" r="1" gradientTransform="matrix(0 270.499 -235.726 0 296 131)" gradientUnits="userSpaceOnUse"><stop stop-color="#C3D0FF"/><stop offset="1" stop-color="#4467E4"/></radialGradient><radialGradient id="d" cx="0" cy="0" r="1" gradientTransform="scale(128.191 147.101) rotate(90 4 8)" gradientUnits="userSpaceOnUse"><stop stop-color="#D7C1FF"/><stop offset="1" stop-color="#905EED"/></radialGradient><filter id="a" width="1576" height="1437" x="-492" y="546" color-interpolation-filters="sRGB" filterUnits="userSpaceOnUse"><feFlood flood-opacity="0" result="BackgroundImageFix"/><feBlend in="SourceGraphic" in2="BackgroundImageFix" result="shape"/><feGaussianBlur result="effect1_foregroundBlur_545_225" stdDeviation="100"/></filter><filter id="b" width="1326.8" height="1307.7" x="773" y="-527" color-interpolation-filters="sRGB" filterUnits="userSpaceOnUse"><feFlood flood-opacity="0" result="BackgroundImageFix"/><feBlend in="SourceGraphic" in2="BackgroundImageFix" result="shape"/><feGaussianBlur result="effect1_foregroundBlur_545_225" stdDeviation="100"/></filter></defs></svg>