<svg width="1440" height="1024" viewBox="0 0 1440 1024" fill="none" xmlns="http://www.w3.org/2000/svg">
<rect width="1440" height="1024" fill="#506ACF"/>
<g filter="url(#filter0_f_813_703)">
<path fill-rule="evenodd" clip-rule="evenodd" d="M425.778 336.626C524.035 228.17 672.769 127.204 647.511 -16.8743C622.69 -158.458 452.229 -206.338 320.512 -263.835C217.896 -308.628 109.607 -332.716 3.03815 -298.195C-109.233 -261.826 -210.383 -188.909 -251.865 -78.4204C-295.081 36.686 -262.302 158.303 -210.121 269.56C-143.373 411.876 -82.4161 599.744 73.9386 616.234C230.608 632.757 319.958 453.43 425.778 336.626Z" fill="#905EEC"/>
</g>
<g filter="url(#filter1_f_813_703)">
<path fill-rule="evenodd" clip-rule="evenodd" d="M905.927 761.067C721.381 767.569 499.215 721.763 391.078 871.491C284.813 1018.63 391.422 1215.16 455.255 1385.08C504.984 1517.45 578.436 1636.73 703.401 1702.85C835.052 1772.51 989.988 1799.92 1126.44 1740.21C1268.59 1678 1349.79 1541.24 1404.55 1396.02C1474.6 1210.27 1590.96 989.658 1468.36 833.535C1345.51 677.098 1104.68 754.065 905.927 761.067Z" fill="#905EEC"/>
</g>
<circle cx="1191.16" cy="666.157" r="203.801" transform="rotate(-23.4975 1191.16 666.157)" fill="url(#paint0_radial_813_703)"/>
<circle cx="1055.91" cy="151.911" r="110.83" transform="rotate(-30.7458 1055.91 151.911)" fill="url(#paint1_radial_813_703)"/>
<ellipse cx="117.68" cy="118.106" rx="117.68" ry="118.106" transform="matrix(0.916303 -0.400486 0.396938 0.917845 5 367.258)" fill="url(#paint2_radial_813_703)"/>
<defs>
<filter id="filter0_f_813_703" x="-471.863" y="-514.586" width="1322.22" height="1331.88" filterUnits="userSpaceOnUse" color-interpolation-filters="sRGB">
<feFlood flood-opacity="0" result="BackgroundImageFix"/>
<feBlend mode="normal" in="SourceGraphic" in2="BackgroundImageFix" result="shape"/>
<feGaussianBlur stdDeviation="100" result="effect1_foregroundBlur_813_703"/>
</filter>
<filter id="filter1_f_813_703" x="146" y="536" width="1576" height="1437" filterUnits="userSpaceOnUse" color-interpolation-filters="sRGB">
<feFlood flood-opacity="0" result="BackgroundImageFix"/>
<feBlend mode="normal" in="SourceGraphic" in2="BackgroundImageFix" result="shape"/>
<feGaussianBlur stdDeviation="100" result="effect1_foregroundBlur_813_703"/>
</filter>
<radialGradient id="paint0_radial_813_703" cx="0" cy="0" r="1" gradientUnits="userSpaceOnUse" gradientTransform="translate(1191.16 505.587) rotate(90) scale(270.499 235.726)">
<stop stop-color="#C3D0FF"/>
<stop offset="1" stop-color="#4467E4"/>
</radialGradient>
<radialGradient id="paint1_radial_813_703" cx="0" cy="0" r="1" gradientUnits="userSpaceOnUse" gradientTransform="translate(1055.91 64.5903) rotate(90) scale(147.101 128.191)">
<stop stop-color="#D7C1FF"/>
<stop offset="1" stop-color="#905EED"/>
</radialGradient>
<radialGradient id="paint2_radial_813_703" cx="0" cy="0" r="1" gradientUnits="userSpaceOnUse" gradientTransform="translate(117.68 25.0527) rotate(90) scale(156.758 136.115)">
<stop stop-color="#C3D0FF"/>
<stop offset="1" stop-color="#4467E4"/>
</radialGradient>
</defs>
</svg>
