<svg xmlns="http://www.w3.org/2000/svg" fill="none" viewBox="0 0 1440 1024"><path fill="#506ACF" d="M0 0h1440v1024H0z"/><g filter="url(#a)"><path fill="#905EEC" fill-rule="evenodd" d="M426 337c98-109 247-210 222-354-25-141-196-189-327-247A444 444 0 0 0 3-298 388 388 0 0 0-252-78c-43 115-10 236 42 348 67 142 128 330 284 346 157 17 246-163 352-279Z" clip-rule="evenodd"/></g><g filter="url(#b)"><path fill="#905EEC" fill-rule="evenodd" d="M906 761c-185 7-407-39-515 110-106 148 0 344 64 514 50 132 123 252 248 318 132 70 287 97 423 37 143-62 224-199 279-344 70-186 186-406 63-562-122-157-363-80-562-73Z" clip-rule="evenodd"/></g><circle cx="1191.2" cy="666.2" r="203.8" fill="url(#c)" transform="rotate(-23 1191 666)"/><circle cx="1055.9" cy="151.9" r="110.8" fill="url(#d)" transform="rotate(-31 1056 152)"/><ellipse cx="117.7" cy="118.1" fill="url(#e)" rx="117.7" ry="118.1" transform="rotate(-24 881 172)"/><defs><radialGradient id="c" cx="0" cy="0" r="1" gradientTransform="matrix(0 270.499 -235.726 0 1179 270)" gradientUnits="userSpaceOnUse"><stop stop-color="#C3D0FF"/><stop offset="1" stop-color="#4467E4"/></radialGradient><radialGradient id="d" cx="0" cy="0" r="1" gradientTransform="matrix(0 147.101 -128.191 0 1056 65)" gradientUnits="userSpaceOnUse"><stop stop-color="#D7C1FF"/><stop offset="1" stop-color="#905EED"/></radialGradient><radialGradient id="e" cx="0" cy="0" r="1" gradientTransform="matrix(0 156.758 -136.115 0 118 25)" gradientUnits="userSpaceOnUse"><stop stop-color="#C3D0FF"/><stop offset="1" stop-color="#4467E4"/></radialGradient><filter id="a" width="1322.2" height="1331.9" x="-472" y="-515" color-interpolation-filters="sRGB" filterUnits="userSpaceOnUse"><feFlood flood-opacity="0" result="BackgroundImageFix"/><feBlend in="SourceGraphic" in2="BackgroundImageFix" result="shape"/><feGaussianBlur result="effect1_foregroundBlur_813_703" stdDeviation="100"/></filter><filter id="b" width="1576" height="1437" x="146" y="536" color-interpolation-filters="sRGB" filterUnits="userSpaceOnUse"><feFlood flood-opacity="0" result="BackgroundImageFix"/><feBlend in="SourceGraphic" in2="BackgroundImageFix" result="shape"/><feGaussianBlur result="effect1_foregroundBlur_813_703" stdDeviation="100"/></filter></defs></svg>