<svg width="58" height="38" viewBox="0 0 58 38" fill="none" xmlns="http://www.w3.org/2000/svg">
<path d="M21.3535 38.0001C19.9517 38.0001 18.5489 37.5251 17.473 36.5711L1.42901 22.3641C0.79804 21.8061 0.451172 21.0611 0.451172 20.2681C0.451172 19.4751 0.79804 18.7301 1.43011 18.1711L4.5354 15.4211C5.81936 14.2841 7.90828 14.2841 9.19114 15.4221L20.488 25.4251C20.923 25.8101 21.653 25.8051 22.0803 25.4131L48.8838 0.887146C50.1469 -0.268854 52.2358 -0.298854 53.5395 0.819146L56.6966 3.52415C57.3375 4.07415 57.6987 4.81415 57.713 5.60715C57.7273 6.40015 57.3925 7.14915 56.7726 7.71615L25.299 36.5141C24.2188 37.5041 22.7861 38.0001 21.3535 38.0001ZM6.86217 16.5641C6.57586 16.5641 6.28956 16.6611 6.07263 16.8541L2.96734 19.6041C2.76472 19.7831 2.65351 20.0181 2.65351 20.2681C2.65351 20.5181 2.76583 20.7531 2.96734 20.9321L19.0102 35.1401C20.3206 36.3031 22.4415 36.2881 23.7354 35.1061L55.2078 6.30815C55.4071 6.12615 55.5128 5.89015 55.5084 5.64015C55.504 5.39015 55.3884 5.15515 55.1825 4.97915L52.0254 2.27415C51.5839 1.89315 50.8725 1.90515 50.4453 2.29615L23.6429 26.8231C22.3589 27.9961 20.2524 28.0121 18.9486 26.8571L7.65281 16.8531C7.43588 16.6601 7.14957 16.5641 6.86217 16.5641Z" fill="url(#paint0_linear_617_214)" fill-opacity="0.8"/>
<defs>
<linearGradient id="paint0_linear_617_214" x1="29.0815" y1="-0.335854" x2="29.0815" y2="39.4221" gradientUnits="userSpaceOnUse">
<stop stop-color="#1A6DFF"/>
<stop offset="1" stop-color="#C822FF"/>
</linearGradient>
</defs>
</svg>
