<svg width="50" height="50" viewBox="0 0 50 50" fill="none" xmlns="http://www.w3.org/2000/svg">
<path d="M42.7565 49.9989C41.9885 49.9989 41.2205 49.7069 40.6355 49.1219L24.9995 33.4849L9.3635 49.1209C8.1935 50.2899 6.2905 50.2899 5.1205 49.1209L0.8775 44.8779C-0.2925 43.7079 -0.2925 41.8049 0.8775 40.6349L16.5145 24.9999L0.8785 9.36388C-0.2915 8.19388 -0.2915 6.29088 0.8785 5.12088L5.1215 0.877875C6.2905 -0.292125 8.1935 -0.293125 9.3645 0.877875L24.9995 16.5149L40.6355 0.878875C41.8055 -0.292125 43.7085 -0.291125 44.8785 0.878875L49.1215 5.12187C50.2915 6.29187 50.2915 8.19487 49.1215 9.36487L33.4845 24.9999L49.1205 40.6359C50.2905 41.8059 50.2905 43.7089 49.1205 44.8789L44.8775 49.1219C44.2925 49.7059 43.5245 49.9989 42.7565 49.9989ZM24.9995 30.6569L42.0495 47.7069C42.4395 48.0969 43.0745 48.0959 43.4645 47.7069L47.7075 43.4639C48.0975 43.0739 48.0975 42.4399 47.7075 42.0489L30.6565 24.9999L47.7065 7.94987C48.0965 7.55988 48.0965 6.92587 47.7065 6.53487L43.4635 2.29188C43.0735 1.90188 42.4385 1.90088 42.0485 2.29188L24.9995 19.3429L7.9495 2.29288C7.5595 1.90288 6.9245 1.90388 6.5345 2.29288L2.2915 6.53588C1.9015 6.92588 1.9015 7.55988 2.2915 7.95088L19.3425 24.9999L2.2925 42.0499C1.9025 42.4399 1.9025 43.0739 2.2925 43.4649L6.5355 47.7079C6.9245 48.0969 7.5595 48.0979 7.9505 47.7079L24.9995 30.6569Z" fill="url(#paint0_linear_626_1469)"/>
<defs>
<linearGradient id="paint0_linear_626_1469" x1="24.9995" y1="0.00087504" x2="24.9995" y2="49.9979" gradientUnits="userSpaceOnUse">
<stop stop-color="#1A6DFF"/>
<stop offset="1" stop-color="#C822FF"/>
</linearGradient>
</defs>
</svg>
