<svg xmlns="http://www.w3.org/2000/svg" fill="none" viewBox="0 0 50 50"><path fill="url(#a)" d="M42.8 50a3 3 0 0 1-2.2-.9L25 33.5 9.4 49a3 3 0 0 1-4.3 0L1 45a3 3 0 0 1 0-4.3L16.5 25 1 9.4A3 3 0 0 1 .9 5L5 1a3 3 0 0 1 4.3 0L25 16.5 40.6 1a3 3 0 0 1 4.3 0L49 5a3 3 0 0 1 0 4.3L33.5 25 49 40.6a3 3 0 0 1 0 4.3L45 49a3 3 0 0 1-2.1.9ZM25 30.7l17 17c.4.4 1 .4 1.5 0l4.2-4.2c.4-.4.4-1 0-1.5l-17-17 17-17c.4-.4.4-1 0-1.5l-4.2-4.2a1 1 0 0 0-1.5 0l-17 17-17-17a1 1 0 0 0-1.5 0L2.3 6.5a1 1 0 0 0 0 1.5l17 17-17 17a1 1 0 0 0 0 1.5l4.2 4.2c.4.4 1 .4 1.5 0l17-17Z"/><defs><linearGradient id="a" x1="25" x2="25" y1="0" y2="50" gradientUnits="userSpaceOnUse"><stop stop-color="#1A6DFF"/><stop offset="1" stop-color="#C822FF"/></linearGradient></defs></svg>