<svg width="34" height="28" viewBox="0 0 34 28" fill="#000" xmlns="http://www.w3.org/2000/svg">
<path d="M33.6827 14.7625L20.661 27.7104C20.4553 27.901 20.1832 28.0048 19.9021 27.9998C19.621 27.9949 19.3528 27.8817 19.1539 27.684C18.9551 27.4863 18.8412 27.2196 18.8363 26.94C18.8313 26.6605 18.9357 26.39 19.1273 26.1854L30.2952 15.079H1.08514C0.797341 15.079 0.521332 14.9653 0.317829 14.763C0.114326 14.5606 0 14.2862 0 14C0 13.7138 0.114326 13.4394 0.317829 13.237C0.521332 13.0347 0.797341 12.921 1.08514 12.921H30.2952L19.1273 1.81457C18.9357 1.61003 18.8313 1.33949 18.8363 1.05996C18.8412 0.780426 18.9551 0.51372 19.1539 0.31603C19.3528 0.118339 19.621 0.00510013 19.9021 0.000168103C20.1832 -0.00476393 20.4553 0.0989963 20.661 0.28959L33.6827 13.2375C33.8859 13.4398 34 13.7141 34 14C34 14.2859 33.8859 14.5602 33.6827 14.7625Z" fill="white"/>
</svg>
