<svg width="84" height="84" viewBox="0 0 84 84" fill="none" xmlns="http://www.w3.org/2000/svg">
<path d="M20.7809 62.3434C31.7349 52.8269 37.9782 47.8997 39.5109 43.6134C35.2246 45.1461 30.2975 51.3894 20.7809 62.3434Z" fill="#333333"/>
<path d="M20.7809 20.7816C30.2975 31.7356 35.2246 37.9789 39.5109 39.5116C37.9782 35.2253 31.7349 30.2981 20.7809 20.7816Z" fill="#333333"/>
<path d="M62.3449 62.3417C52.8284 51.3877 47.9012 45.1444 43.6149 43.6117C45.1476 47.898 51.3909 52.8251 62.3449 62.3417Z" fill="#333333"/>
<path d="M62.3449 20.7833C51.3909 30.2999 45.1476 35.227 43.6149 39.5133C47.9012 37.9806 52.8284 31.7373 62.3449 20.7833Z" fill="#333333"/>
<path d="M39.5132 39.5103C40.0068 40.9044 40.0068 42.2206 39.5132 43.6147C40.9073 43.1212 42.2235 43.1212 43.6177 43.6148C43.1241 42.2206 43.1241 40.9044 43.6177 39.5102C42.2235 40.0038 40.9073 40.0038 39.5132 39.5103Z" fill="#333333"/>
</svg>
