<svg width="37" height="30" viewBox="0 0 37 30" fill="none" xmlns="http://www.w3.org/2000/svg">
<path d="M36.7641 15.5585L22.2861 29.7686C22.1352 29.9168 21.9305 30 21.717 30C21.5036 30 21.2989 29.9168 21.148 29.7686C20.997 29.6205 20.9122 29.4196 20.9122 29.2101C20.9122 29.0006 20.997 28.7997 21.148 28.6516L34.2526 15.7895H0.804334C0.591011 15.7895 0.386426 15.7063 0.235584 15.5582C0.0847422 15.4102 0 15.2094 0 15C0 14.7906 0.0847422 14.5898 0.235584 14.4418C0.386426 14.2937 0.591011 14.2105 0.804334 14.2105H34.2526L21.148 1.34843C20.997 1.20029 20.9122 0.999381 20.9122 0.789889C20.9122 0.580398 20.997 0.379487 21.148 0.231354C21.2989 0.0832206 21.5036 4.12958e-09 21.717 0C21.9305 -4.12958e-09 22.1352 0.0832198 22.2861 0.231353L36.7641 14.4415C36.8389 14.5148 36.8982 14.6018 36.9387 14.6977C36.9792 14.7935 37 14.8963 37 15C37 15.1037 36.9792 15.2065 36.9387 15.3023C36.8982 15.3982 36.8389 15.4852 36.7641 15.5585Z" fill="#3E2F60"/>
</svg>
